Input #0, mov,mp4,m4a,3gp,3g2,mj2, from '/home/hbattu/projects/huberman-gpt/huberman-audio/mp3/tmp9xti4rqp.mp4':
  Metadata:
    major_brand     : dash
    minor_version   : 0
    compatible_brands: iso6mp41
    creation_time   : 2022-05-30T23:45:03.000000Z
  Duration: 02:06:47.16, start: 0.000000, bitrate: 129 kb/s
    Stream #0:0(eng): Audio: aac (LC) (mp4a / 0x6134706D), 44100 Hz, stereo, fltp, 0 kb/s (default)
    Metadata:
      creation_time   : 2022-05-30T23:45:03.000000Z
      handler_name    : ISO Media file produced by Google Inc.
Stream mapping:
  Stream #0:0 -> #0:0 (aac (native) -> mp3 (libmp3lame))
Press [q] to stop, [?] for help
[graph_0_in_0_0 @ 0x559af0a1b340] tb:1/44100 samplefmt:fltp samplerate:44100 chlayout:0x3
Output #0, mp3, to '../huberman-audio/mp3/dzOvi0Aa2EA.mp3':
  Metadata:
    major_brand     : dash
    minor_version   : 0
    compatible_brands: iso6mp41
    TSSE            : Lavf58.29.100
    Stream #0:0(eng): Audio: mp3 (libmp3lame), 44100 Hz, stereo, fltp, delay 1105 (default)
    Metadata:
      creation_time   : 2022-05-30T23:45:03.000000Z
      handler_name    : ISO Media file produced by Google Inc.
      encoder         : Lavc58.54.100 libmp3lame
No more output streams to write to, finishing.
size=  118863kB time=02:06:47.17 bitrate= 128.0kbits/s speed=96.4x    
[AVIOContext @ 0x559af090a900] Statistics: 0 seeks, 158 writeouts
video:0kB audio:118862kB subtitle:0kB other streams:0kB global headers:0kB muxing overhead: 0.000284%
Input file #0 (/home/hbattu/projects/huberman-gpt/huberman-audio/mp3/tmp9xti4rqp.mp4):
  Input stream #0:0 (audio): 327613 packets read (121714544 bytes); 327613 frames decoded (335475712 samples); 
  Total: 327613 packets (121714544 bytes) demuxed
Output file #0 (../huberman-audio/mp3/dzOvi0Aa2EA.mp3):
  Output stream #0:0 (audio): 291212 frames encoded (335475712 samples); 291213 packets muxed (121715147 bytes); 
  Total: 291213 packets (121715147 bytes) muxed
[AVIOContext @ 0x559af0937a00] Statistics: 2 seeks, 466 writeouts
[AVIOContext @ 0x559af0913880] Statistics: 123114052 bytes read, 0 seeks
